# xmcd
#
# Track frame offsets: 
#        150
#        17245
#        33845
#        51120
#        76512
#        93955
#        117167
#        133772
#        149470
#        167397
#
# Disc length: 2556 seconds
#
# Revision: 2
# Processed by: cddbd v1.5.2PL0 Copyright (c) Steve Scherf et al.
# Submitted via: ExactAudioCopy v1.1
#
DISCID=7309fa0a
DTITLE=ANNA TSUCHIYA inspi’ NANA(BLACK STONES) - ANNA TSUCHIYA inspi' 
DTITLE=NANA(BLACK STONES)
DYEAR=2007
DGENRE=Rock
TTITLE0=rose
TTITLE1=Without You
TTITLE2=zero
TTITLE3=scream
TTITLE4=Take me out
TTITLE5=黒い涙
TTITLE6=I'm addicted to you
TTITLE7=LUCY
TTITLE8=rose-Street Live Edition-
TTITLE9=黒い涙-TV Live Edition-
EXTD=YEAR: 2007
EXTT0=
EXTT1=
EXTT2=
EXTT3=
EXTT4=
EXTT5=
EXTT6=
EXTT7=
EXTT8=
EXTT9=
PLAYORDER=
